# File created by Blade
# Date/Time:  Thu Jan 22 15:49:58 2015
# Frame Rate: 120.000 fps
#------------------------------------------------------
:FULLY-SPECIFIED
:DEGREES
1713
root 2.820390 37.157950 4.006065 -5.639786 -3.422110 2.530479
RightUpLeg 12.186123 -6.745014 -5.157590
RightLeg -5.119432 -0.000000 0.000000
RightFoot -10.579497 -12.142994 15.954844
RightToeBase 14.935639 -0.000000 -0.000000
LeftUpLeg 10.607283 6.355035 2.647939
LeftLeg -1.979853 -0.000000 0.000000
LeftFoot -6.077249 7.832443 -17.315653
LeftToeBase 8.741565 -0.000000 -0.000000
Spine 6.838742 -5.820789 -2.557981
RightShoulder 5.271030 33.532063 -44.546092
RightArm 97.180441 -12.782649 59.426601
RightForeArm 29.202085 -0.000000 111.593997
RightHand 13.448346 -0.000000 -1.506785
RightHandThumb1 -24.326973 -0.000000 -32.862282
LeftShoulder 0.267379 18.643260 17.423044
LeftArm 77.910841 7.883470 -66.220133
LeftForeArm -48.482652 -0.000000 101.161661
LeftHand -11.556480 0.000000 -34.734534
LeftHandThumb1 -26.253704 0.000000 33.147579
Head -6.270143 -12.001072 6.504300
1714
root 2.816118 37.158182 4.010281 -5.613629 -3.361804 2.513065
RightUpLeg 12.194779 -6.759328 -5.144545
RightLeg -5.139197 -0.000000 0.000000
RightFoot -10.557141 -12.122021 15.944430
RightToeBase 14.914548 -0.000000 -0.000000
LeftUpLeg 10.573437 6.276063 2.657729
LeftLeg -1.966872 -0.000000 0.000000
LeftFoot -6.100596 7.851088 -17.335252
LeftToeBase 8.776664 -0.000000 -0.000000
Spine 6.718242 -5.590055 -2.532116
RightShoulder 4.968315 33.367776 -44.771513
RightArm 97.859625 -12.418032 59.227566
RightForeArm 29.922127 -0.000000 112.497063
RightHand 13.434850 0.000000 -1.147967
RightHandThumb1 -24.326973 -0.000000 -32.862282
LeftShoulder 0.430468 18.303456 17.609829
LeftArm 77.634725 7.637069 -66.356768
LeftForeArm -49.283788 0.000000 101.664964
LeftHand -11.491951 -0.000000 -34.627253
LeftHandThumb1 -26.253704 0.000000 33.147579
Head -6.213221 -12.526077 6.703993
1715
root 2.809871 37.161250 4.015340 -5.561421 -3.283705 2.473478
RightUpLeg 12.164163 -6.834820 -5.098292
RightLeg -5.130977 -0.000000 0.000000
RightFoot -10.527800 -12.137022 15.916785
RightToeBase 14.847130 -0.000000 -0.000000
LeftUpLeg 10.513445 6.201883 2.693050
LeftLeg -1.951902 -0.000000 0.000000
LeftFoot -6.092448 7.842743 -17.326627
LeftToeBase 8.780915 -0.000000 -0.000000
Spine 6.598363 -5.487008 -2.471490
RightShoulder 4.624291 34.210835 -45.064818
RightArm 97.671657 -12.669576 59.325171
RightForeArm 30.247807 -0.000000 113.422550
RightHand 13.496318 0.000000 -0.884942
RightHandThumb1 -24.326973 -0.000000 -32.862282
LeftShoulder 0.427108 18.202738 17.693469
LeftArm 77.499899 7.316692 -66.538582
LeftForeArm -49.420146 0.000000 102.242426
LeftHand -11.482245 -0.000000 -34.268601
LeftHandThumb1 -26.253704 0.000000 33.147579
Head -6.264208 -12.953546 6.867068
1716
root 2.805365 37.161717 4.021641 -5.547201 -3.212225 2.452832
RightUpLeg 12.181239 -6.892916 -5.078220
RightLeg -5.138889 -0.000000 0.000000
RightFoot -10.514920 -12.138547 15.968635
RightToeBase 14.765745 -0.000000 -0.000000
LeftUpLeg 10.496355 6.135408 2.713042
LeftLeg -1.942089 -0.000000 0.000000
LeftFoot -6.111212 7.827146 -17.347957
LeftToeBase 8.792090 -0.000000 -0.000000
Spine 6.478569 -5.368002 -2.424863
RightShoulder 4.570790 34.213605 -45.100996
RightArm 98.262793 -12.295529 59.047427
RightForeArm 30.666360 -0.000000 114.168860
RightHand 13.635634 -0.000000 -0.764222
RightHandThumb1 -24.326973 -0.000000 -32.862282
LeftShoulder 0.542972 17.752648 17.873976
LeftArm 76.876155 7.067327 -66.978928
LeftForeArm -49.026262 0.000000 102.865765
LeftHand -11.555139 -0.000000 -33.757079
LeftHandThumb1 -26.253704 0.000000 33.147579
Head -6.178718 -13.320961 6.964817
1717
root 2.800610 37.162746 4.027984 -5.533566 -3.134955 2.428837
RightUpLeg 12.199288 -6.941235 -5.052548
RightLeg -5.148846 -0.000000 0.000000
RightFoot -10.508614 -12.164601 15.986398
RightToeBase 14.755266 -0.000000 -0.000000
LeftUpLeg 10.477854 6.082969 2.737380
LeftLeg -1.937443 -0.000000 0.000000
LeftFoot -6.104280 7.826557 -17.327290
LeftToeBase 8.728480 -0.000000 -0.000000
Spine 6.376058 -5.220677 -2.387923
RightShoulder 4.328528 33.709238 -45.206728
RightArm 99.228598 -11.899765 58.762148
RightForeArm 30.849456 0.000000 114.859733
RightHand 13.930478 0.000000 -0.355348
RightHandThumb1 -24.326973 -0.000000 -32.862282
LeftShoulder 0.565451 17.922344 17.941431
LeftArm 76.977093 6.600737 -67.204802
LeftForeArm -48.443034 -0.000000 103.302247
LeftHand -11.623499 -0.000000 -33.401258
LeftHandThumb1 -26.253704 0.000000 33.147579
Head -6.138522 -13.715903 7.092339
